<svg height="56" viewBox="0 0 60 56" width="60" xmlns="http://www.w3.org/2000/svg"><g id="Page-1" fill="none" fill-rule="evenodd"><g id="029---Eco-Friendly-Fabric" fill="#fff" fill-rule="nonzero" transform="translate(-1)"><path id="Shape" d="m60.117 24.927c-.457-.054-10.5-1.188-19.351 1.542.590096-1.7351322 1.0009066-3.526146 1.226-5.345 1.108-8.877-4.633-17.086-10.437-20.956-.4416444-.29460218-1.0365212-.19274874-1.355.232-2.609 3.451-5.292 6.88-7.448 9.556-3.641 4.515-9.552 11.857-5.525 21.513-5.0282701-1.4864234-10.35285219-1.6640357-15.469-.516-.29464493.073251-.54005409.2763963-.66705156.5521734-.12699747.275777-.12182788.5943158.01405156.8658266 1.88825639 3.8523113 3.54031031 7.8159717 4.947 11.869 1.3 3.91 5.3 11.775 16.359 11.775 2.5682038-.0327165 5.1218981-.3909057 7.6-1.066 1.5880934.4105754 3.2216917.6188912 4.862.62 9.475 0 18.234-6.745 21.067-14.3 2.979-7.946 5-15.006 5.025-15.076.0799452-.2822339.0319385-.5853362-.1313089-.8290522-.1632473-.243716-.4252703-.4034646-.7166911-.4369478zm-35.807-13.716c2.334-2.9 4.846-6.126 6.905-8.837 5.034 3.722 9.749 10.856 8.793 18.5-.2721177 2.2321504-.8519554 4.4158805-1.723 6.489-1.7502114.6971869-3.3983999 1.6272361-4.9 2.765-3.685 2.872-5.359 5.591-6.216 8.124-.2-.3-.41-.59-.63-.874-.679-4.7-1.413-16.14 5.283-25.809.2985072-.4537154.1803066-1.0627447-.2662505-1.3718578-.4465571-.30911312-1.058202-.20529315-1.3777495.2338578-6.055 8.742-6.384 18.786-5.909 24.62-1.3295725-1.0704869-2.7995835-1.9537048-4.369-2.625-5.083-9.432.618-16.513 4.41-21.215zm-16.362 32.396c-1.29216192-3.740469-2.79455442-7.4049713-4.5-10.976 7.423-1.377 19.01.454 22.652 7.74.8040772 1.7194773 1.4018988 3.5280472 1.781 5.388-2.981-4.183-8.128-8.478-18.671-10.737-.54013449-.1159798-1.0720202.2278655-1.188.768s.22786551 1.0720202.768 1.188c14.051 3.011 17.725 9.906 19.291 12.933.064.161.385.71.717 1.574.071.677.119 1.25.151 1.674-14.859 3.607-19.63-5.438-21.001-9.552zm46.115-3.038c-2.624 7-12.6 14.963-23.11 12.552-.071-1.022-.244-2.971-.617-5.232.816-3.108 3.45-11.8 23.906-16.919.3539356-.0796449.636976-.3447323.7396106-.6926975.1026346-.3479653.0087636-.7242251-.2452935-.9832013-.2540571-.2589763-.6284478-.3600447-.9783171-.2641012-12.858 3.214-20.808 8.21-24.178 15.207-.2694057-1.0820005-.6033361-2.1469049-1-3.189.423-3.841 3-6.976 6.04-9.34 5.988-4.673 16.528-5.448 24.08-4.9-.7 2.313-2.393 7.78-4.637 13.761z"/></g></g></svg>